<?xml version="1.0" standalone="no"?><!DOCTYPE svg PUBLIC "-//W3C//DTD SVG 1.1//EN" "http://www.w3.org/Graphics/SVG/1.1/DTD/svg11.dtd"><svg t="1720527083523" class="icon" viewBox="0 0 4590 1024" version="1.1" xmlns="http://www.w3.org/2000/svg" p-id="8004" xmlns:xlink="http://www.w3.org/1999/xlink" width="896.484375" height="200"><path d="M373.534591 354.213836m-57.962264 0a57.962264 57.962264 0 1 0 115.924528 0 57.962264 57.962264 0 1 0-115.924528 0Z" fill="#E50003" p-id="8005"></path><path d="M341.333333 414.752201s-56.674214 88.875472-100.467924 202.2239c-42.50566 113.348428-6.440252 161.006289 28.337107 153.277987 36.065409-7.728302 88.875472-64.402516 88.875471-64.402516H322.012579s-50.233962 30.913208-65.690566-1.28805c-15.456604-32.201258-16.744654-78.571069 29.625157-173.886792 0 0 20.608805-50.233962 60.538365-113.348428l-5.152202-2.576101zM403.159748 627.280503s65.690566-79.859119 105.620126-193.207547c0 0 29.625157-103.044025 0-126.228931-30.913208-23.184906-74.706918 19.320755-74.706918 19.320755l-9.016352-14.168554s75.994969-83.72327 127.516981-55.386163c0 0 50.233962 29.625157-25.761006 204.8l211.240251 298.827673H618.264151L474.002516 557.725786s-36.065409 55.386164-46.369812 70.842767l-24.472956-1.28805z" fill="#004C9E" p-id="8006"></path><path d="M450.81761 520.372327s25.761006-50.233962 42.50566-101.755975l-24.472956-37.353459-73.418867 61.826415 55.386163 77.283019zM314.284277 640.161006c3.864151 3.864151 6.440252 9.016352 7.728302 14.168554h-7.728302c-1.28805-3.864151-2.576101-7.728302-5.152202-9.016352-2.576101-2.576101-6.440252-3.864151-11.592452-3.864151-6.440252 0-11.592453 2.576101-14.168554 6.440251-3.864151 3.864151-5.152201 11.592453-5.152201 20.608805 0 7.728302 1.28805 12.880503 5.152201 18.032705 3.864151 5.152201 9.016352 6.440252 15.456604 6.440251s10.304403-2.576101 14.168553-7.728302c1.28805-2.576101 2.576101-6.440252 3.864151-10.304402h5.152202c-1.28805 6.440252-2.576101 11.592453-7.728302 16.744654-5.152201 5.152201-11.592453 7.728302-19.320755 7.728302s-12.880503-2.576101-18.032704-6.440252c-6.440252-6.440252-10.304403-15.456604-10.304403-27.049056 0-9.016352 2.576101-16.744654 7.728302-23.184906 5.152201-6.440252 12.880503-10.304403 21.896855-10.304403 7.728302 1.28805 14.168553 3.864151 18.032705 7.728302zM351.637736 636.296855h9.016352l23.184906 63.114466h-9.016352l-6.440252-19.320755h-24.472956l-6.440252 19.320755h-9.016352l23.184906-63.114466z m14.168553 37.353459l-10.304402-28.337106-10.304403 28.337106h20.608805zM396.719497 678.802516c0 3.864151 1.28805 6.440252 2.5761 9.016352 2.576101 3.864151 7.728302 6.440252 14.168554 6.440251 2.576101 0 6.440252 0 9.016352-1.28805 5.152201-1.28805 7.728302-5.152201 7.728302-9.016352 0-3.864151-1.28805-6.440252-2.576101-7.728302-2.576101-1.28805-5.152201-2.576101-10.304402-3.864151l-9.016352-2.5761c-5.152201-1.28805-9.016352-2.576101-11.592453-3.864151-3.864151-2.576101-6.440252-6.440252-6.440252-11.592453s1.28805-10.304403 5.152202-14.168554c3.864151-3.864151 9.016352-5.152201 16.744654-5.152201 6.440252 0 11.592453 1.28805 16.744654 5.152201 3.864151 2.576101 6.440252 7.728302 6.440251 15.456604h-7.728302c0-3.864151-1.28805-6.440252-2.5761-7.728302-2.576101-3.864151-6.440252-5.152201-12.880503-5.152201-5.152201 0-7.728302 1.28805-10.304403 2.576101-2.576101 2.576101-2.576101 5.152201-2.576101 7.728301 0 2.576101 1.28805 5.152201 3.864151 6.440252 1.28805 1.28805 5.152201 2.576101 11.592453 3.864151l9.016352 2.576101c3.864151 1.28805 7.728302 2.576101 9.016353 3.864151 3.864151 2.576101 6.440252 7.728302 6.440251 12.880503 0 6.440252-2.576101 11.592453-7.728302 15.456603-5.152201 2.576101-10.304403 3.864151-16.744654 3.864151-7.728302 0-14.168553-2.576101-18.032704-6.440251-3.864151-3.864151-6.440252-9.016352-6.440252-16.744654h6.440252zM452.10566 636.296855h9.016353v63.114466h-9.016353v-63.114466zM493.32327 636.296855h9.016353l23.184905 63.114466h-9.016352l-6.440251-19.320755h-24.472956l-6.440252 19.320755h-9.016352l23.184905-63.114466z m14.168554 37.353459l-10.304403-28.337106-10.304402 28.337106h20.608805z" fill="#004C9E" p-id="8007"></path><path d="M899.059119 508.779874V361.942138h36.065409v10.304403h39.92956v-38.64151h37.353459v38.64151h37.353459l10.304403-12.880503 37.353459 9.016352-9.016352 12.880503v127.516981h-36.065409v-16.744654h-38.64151v83.723271h-37.353459v-83.723271h-39.929559v16.744654h-37.35346z m75.994969-33.489308v-85.011321h-39.92956v85.011321h39.92956z m37.353459 0h38.64151v-85.011321h-38.64151v85.011321zM1222.359748 573.18239V334.893082h37.35346v10.304402h124.94088l12.880503-10.304402 34.777359 7.728302-10.304403 12.880503v220.256604h-34.777358v-11.592453h-126.228931v11.592453h-38.64151z m36.065409-29.625157h126.228931V361.942138h-126.228931v181.615095z m5.152201-34.777359h39.92956v-61.826415h-36.065409v-16.744654h36.065409v-29.625157h-38.641509v-18.032705h109.484277v18.032705h-38.64151v29.625157h38.64151v16.744654h-38.64151v61.826415h38.64151v16.744654h-110.772328v-16.744654z m74.706919-45.081761l2.5761-2.5761c9.016352 2.576101 16.744654 5.152201 20.608805 7.728301 3.864151 2.576101 7.728302 3.864151 10.304403 7.728302 2.576101 2.576101 3.864151 5.152201 5.152201 9.016353 0 2.576101 0 6.440252-1.28805 7.728301-1.28805 2.576101-3.864151 3.864151-7.728302 5.152202-3.864151 1.28805-6.440252 1.28805-7.728302 0-2.576101-1.28805-3.864151-2.576101-5.152201-3.864151-1.28805-1.28805-1.28805-3.864151-2.576101-7.728302s-2.576101-7.728302-5.152201-11.592453c-2.576101-3.864151-5.152201-7.728302-9.016352-11.592453zM1541.796226 360.654088v-2.576101c27.049057-7.728302 48.945912-15.456604 63.114466-23.184905l37.353459 19.320754c-7.728302 2.576101-19.320755 5.152201-33.489308 7.728302v33.489309h28.337107V412.176101H1610.062893v20.608805c2.576101 1.28805 5.152201 1.28805 9.016352 2.5761 3.864151 1.28805 9.016352 3.864151 18.032705 7.728302 7.728302 3.864151 12.880503 10.304403 12.880503 16.744654 0 7.728302-1.28805 12.880503-5.152201 15.456604-2.576101 2.576101-6.440252 3.864151-10.304403 3.864151-3.864151 0-6.440252-1.28805-9.016352-3.864151-2.576101-2.576101-3.864151-5.152201-3.864151-9.016352l-2.576101-9.016352c-1.28805-2.576101-1.28805-5.152201-2.5761-9.016353-1.28805-2.576101-2.576101-6.440252-6.440252-10.304402v133.957233h-33.489308v-75.994969l-7.728302 15.456604c-1.28805 2.576101-3.864151 7.728302-9.016352 14.168553-3.864151 6.440252-9.016352 11.592453-12.880503 15.456604l-2.576101-1.28805c0-1.28805 1.28805-2.576101 1.28805-5.152201 0-1.28805 1.28805-6.440252 3.864151-12.880504 1.28805-7.728302 2.576101-12.880503 3.864151-18.032704 1.28805-5.152201 1.28805-11.592453 2.576101-19.320755s1.28805-14.168553 1.28805-19.320754V450.81761c0-5.152201 0-12.880503 1.288051-23.184906h16.744654V412.176101h-33.489309v-16.744654h33.489309v-33.489309c-18.032704 0-29.625157 0-33.489309-1.28805z m91.451573 126.228931h70.842767V334.893082h36.065409v151.989937h15.456604v18.032704h-15.456604v69.554717h-36.065409v-69.554717h-70.842767v-18.032704z m10.304402-124.940881l1.288051-2.5761c14.168553 2.576101 24.472956 3.864151 32.201257 6.440251 6.440252 2.576101 11.592453 6.440252 14.168554 11.592453 2.576101 5.152201 3.864151 9.016352 3.864151 11.592453 0 3.864151-1.28805 7.728302-3.864151 10.304402-2.576101 2.576101-6.440252 3.864151-10.304403 3.864151s-7.728302-1.28805-10.304402-3.864151c-2.576101-1.28805-3.864151-5.152201-5.152201-9.016352-1.28805-5.152201-3.864151-9.016352-6.440252-12.880503-3.864151-3.864151-7.728302-9.016352-15.456604-15.456604z m0 60.538365l1.288051-1.28805c1.28805 0 3.864151 0 6.440251 1.28805 2.576101 0 9.016352 1.28805 18.032705 3.864151 9.016352 2.576101 15.456604 5.152201 19.320754 10.304403 3.864151 5.152201 6.440252 10.304403 6.440252 14.168553 0 3.864151-1.28805 7.728302-3.864151 10.304403-2.576101 2.576101-6.440252 3.864151-11.592453 3.864151-3.864151 0-7.728302-1.28805-10.304402-3.864151-2.576101-2.576101-5.152201-6.440252-7.728302-12.880504-2.576101-6.440252-5.152201-11.592453-7.728302-14.168553-1.28805-5.152201-5.152201-7.728302-10.304403-11.592453zM2068.608805 336.181132c-9.016352 12.880503-14.168553 20.608805-18.032704 25.761006-3.864151 5.152201-9.016352 10.304403-14.168554 15.456604-6.440252 6.440252-16.744654 14.168553-32.201258 23.184906h29.625158l11.592452-12.880503 37.353459 11.592452-11.592452 9.016353c-6.440252 9.016352-11.592453 14.168553-14.168554 16.744654-3.864151 2.576101-10.304403 7.728302-23.184905 14.168553l7.728301 2.576101-14.168553 7.728302c-10.304403 10.304403-19.320755 16.744654-24.472956 19.320754l-16.744654 9.016353h10.304402v9.016352h81.14717v18.032704H1996.477987v43.793711c0 5.152201 0 9.016352-1.28805 11.592453 0 2.576101-2.576101 5.152201-5.152201 7.728302-2.576101 2.576101-9.016352 5.152201-20.608805 6.440251-11.592453 1.28805-19.320755 2.576101-23.184906 1.288051-2.576101 0-3.864151-1.28805-3.864151-1.288051s-1.28805-2.576101-1.28805-3.864151v-2.5761c0-2.576101-2.576101-5.152201-5.152201-9.016353-2.576101-2.576101-10.304403-5.152201-23.184906-6.440251l1.28805-3.864151c12.880503 1.28805 23.184906 1.28805 32.201258 1.28805 6.440252 0 11.592453-1.28805 12.880503-2.5761 1.28805-1.28805 2.576101-3.864151 2.576101-5.152202v-36.065408h-90.163522v-18.032705h90.163522v-9.016352h10.304402c5.152201-6.440252 7.728302-11.592453 9.016353-14.168553l2.5761-5.152202h-82.43522v-16.744654h88.875472l11.592453-11.592453 27.049056 6.440252c2.576101-7.728302 3.864151-14.168553 5.152202-19.320755H1906.314465c0 2.576101 0 5.152201-1.28805 7.728302 0 2.576101-1.28805 5.152201-3.864151 9.016352-2.576101 3.864151-5.152201 6.440252-9.016352 7.728302-3.864151 2.576101-7.728302 2.576101-12.880503 1.28805-3.864151 0-6.440252-1.28805-9.016352-3.86415-2.576101-2.576101-3.864151-5.152201-3.864151-7.728302 0-2.576101 0-6.440252 2.5761-10.304403 0-1.28805 2.576101-3.864151 5.152202-7.728302s5.152201-7.728302 7.728301-12.880503c2.576101-5.152201 3.864151-10.304403 2.576101-15.456604v-6.440251h2.576101c6.440252 7.728302 9.016352 12.880503 10.304402 14.168553l2.576101 5.152201h92.739622c6.440252-10.304403 11.592453-18.032704 14.168554-24.472955 3.864151-6.440252 6.440252-12.880503 9.016352-19.320755 2.576101-6.440252 5.152201-11.592453 5.152201-14.168554l1.288051-6.440251 46.369811 1.28805z m-181.615094 2.576101c12.880503 3.864151 21.896855 7.728302 27.049056 10.304402 5.152201 2.576101 10.304403 6.440252 14.168554 10.304403 3.864151 3.864151 6.440252 7.728302 7.728302 11.592453 1.28805 3.864151 1.28805 7.728302 0 11.592452-1.28805 3.864151-3.864151 7.728302-9.016353 11.592453-5.152201 2.576101-10.304403 2.576101-14.168553 0-5.152201-2.576101-7.728302-7.728302-9.016352-12.880503-1.28805-5.152201-2.576101-11.592453-3.864151-16.744654-1.28805-5.152201-3.864151-10.304403-7.728302-14.168553l-6.440252-7.728302 1.288051-3.864151z m52.810063-5.152202c11.592453 3.864151 20.608805 6.440252 25.761006 9.016353 6.440252 2.576101 11.592453 6.440252 15.456604 10.304402 3.864151 3.864151 7.728302 7.728302 9.016352 11.592453 2.576101 3.864151 2.576101 9.016352 1.28805 12.880503-1.28805 3.864151-2.576101 7.728302-6.440251 10.304403-3.864151 2.576101-7.728302 3.864151-11.592453 3.864151s-7.728302-1.28805-10.304403-3.864151c-2.576101-2.576101-3.864151-6.440252-5.152201-10.304403-1.28805-3.864151-2.576101-10.304403-3.864151-16.744654-1.28805-6.440252-5.152201-11.592453-9.016352-16.744654l-7.728302-7.728302 2.576101-2.576101zM2197.413836 338.757233h32.201258v9.016352h11.592453l7.728302-10.304403 33.489308 7.728302-7.728302 9.016352c0 2.576101-1.28805 5.152201-1.28805 7.728302 0 2.576101-2.576101 7.728302-5.152201 16.744654-2.576101 9.016352-5.152201 15.456604-9.016352 20.608805-2.576101 5.152201-7.728302 14.168553-14.168554 25.761007 9.016352 3.864151 15.456604 6.440252 19.320755 9.016352 2.576101 2.576101 5.152201 5.152201 5.152201 7.728302 1.28805 2.576101 1.28805 6.440252 1.28805 11.592453v60.538364c0 3.864151-2.576101 7.728302-5.152201 11.592453-2.576101 3.864151-7.728302 5.152201-12.880503 6.440252-6.440252 1.28805-10.304403 1.28805-10.304403 1.28805s-1.28805-1.28805-1.28805-2.5761-1.28805-3.864151-2.5761-7.728302-2.576101-5.152201-5.152202-6.440252l-3.864151-1.28805v56.674214h-32.201258V338.757233z m32.201258 25.761006v145.549686h7.728302c2.576101 0 3.864151-1.28805 5.152201-2.576101 0-1.28805 1.28805-3.864151 1.288051-7.728302V489.459119v-12.880503-16.744654-10.304402c0-2.576101-1.28805-5.152201-1.288051-7.728302-1.28805-2.576101-1.28805-3.864151-2.5761-6.440252-1.28805-1.28805-3.864151-3.864151-6.440252-7.728302 2.576101-12.880503 5.152201-20.608805 5.152202-23.184905 0-3.864151 1.28805-9.016352 2.5761-18.032705 1.28805-7.728302 1.28805-14.168553 1.28805-15.456603v-5.152202h-12.880503z m23.184906 207.376101l19.320755-15.456604c5.152201-5.152201 10.304403-11.592453 14.168553-19.320755 3.864151-6.440252 6.440252-12.880503 7.728302-18.032704 1.28805-5.152201 2.576101-10.304403 2.576101-14.168554 0-5.152201 1.28805-10.304403 1.28805-15.456604v-20.608805h-19.320755v-16.744654h123.65283v16.744654H2370.012579v70.842768c0 2.576101 1.28805 3.864151 3.864151 3.864151 1.28805 0 2.576101-1.28805 5.152201-5.152202 1.28805-3.864151 3.864151-9.016352 7.728302-16.744654 2.576101-7.728302 5.152201-14.168553 7.728302-19.320754l3.864151 1.28805c0 2.576101-1.28805 3.864151-1.288051 5.152201 0 1.28805-1.28805 3.864151-1.28805 7.728302s-1.28805 6.440252 0 7.728302c0 5.152201 2.576101 10.304403 6.440251 11.592453 3.864151 2.576101 6.440252 3.864151 6.440252 5.152201 0 1.28805 0 2.576101-2.576101 6.440252-3.864151 6.440252-7.728302 12.880503-12.880503 18.032704-3.864151 5.152201-11.592453 7.728302-24.472956 7.728302-7.728302 0-14.168553-1.28805-19.320754-3.864151-5.152201-2.576101-7.728302-6.440252-9.016353-9.016352-1.28805-3.864151-2.576101-7.728302-2.5761-11.592453v-78.571069h-9.016352v23.184905c0 6.440252-1.28805 11.592453-1.288051 18.032705-1.28805 6.440252-2.576101 12.880503-6.440251 18.032704s-7.728302 11.592453-12.880503 16.744654-11.592453 9.016352-15.456604 11.592453c-5.152201 2.576101-10.304403 6.440252-18.032705 9.016352-7.728302 3.864151-12.880503 6.440252-19.320754 7.728302l-2.576101-2.5761z m90.163522-204.8h20.608805l9.016352-11.592453 36.065409 9.016352-9.016352 10.304403-6.440252 12.880503c-2.576101 3.864151-5.152201 6.440252-10.304402 10.304402-3.864151 3.864151-11.592453 7.728302-20.608805 12.880503l-2.576101-1.28805c1.28805-3.864151 2.576101-6.440252 2.576101-11.592453 1.28805-3.864151 1.28805-7.728302 1.28805-9.016352v-5.152201H2305.610063v7.728302c0 2.576101-1.28805 5.152201-2.576101 7.728301-1.28805 2.576101-3.864151 5.152201-7.728302 6.440252-2.576101 1.28805-6.440252 2.576101-10.304402 2.576101-3.864151 0-7.728302-1.28805-10.304403-3.864151-2.576101-2.576101-3.864151-5.152201-3.864151-7.728302 0-2.576101 0-5.152201 1.288051-7.728302 1.28805-2.576101 2.576101-3.864151 3.864151-6.440252l3.864151-5.152201c3.864151-5.152201 6.440252-9.016352 7.728301-11.592453 1.28805-3.864151 2.576101-7.728302 3.864151-14.168553h2.576101c3.864151 3.864151 6.440252 9.016352 10.304403 15.456604h21.896855c-2.576101-1.28805-3.864151-2.576101-5.152201-2.576101-1.28805-1.28805-2.576101-2.576101-2.576101-3.864151-1.28805-2.576101-1.28805-3.864151-2.576101-6.440252l-1.28805-5.152201c0-2.576101-1.28805-3.864151-2.576101-6.440251s-2.576101-5.152201-5.152201-7.728302l1.288051-2.576101c12.880503 1.28805 20.608805 2.576101 25.761006 2.576101 5.152201 1.28805 9.016352 2.576101 11.592453 5.152201 2.576101 2.576101 5.152201 5.152201 5.152201 6.440252 1.28805 1.28805 1.28805 3.864151 1.28805 6.440251s0 5.152201-1.28805 6.440252c-1.28805 3.864151-3.864151 6.440252-7.728302 7.728302z m-50.233962 47.657861h88.875471v16.744654H2292.72956v-16.744654zM2545.187421 363.230189h27.049057c0-2.576101 1.28805-3.864151 1.28805-5.152202 0-1.28805 0-3.864151 1.288051-7.728301l1.28805-9.016353V334.893082h50.233962c-2.576101 3.864151-3.864151 7.728302-6.440251 10.304402-2.576101 2.576101-5.152201 6.440252-10.304403 10.304403-5.152201 3.864151-12.880503 9.016352-24.472956 14.168553h90.163522l10.304403-12.880503 38.641509 9.016352-10.304402 11.592453v193.207547h-37.35346v-25.761006h-94.027672v25.761006h-37.35346V363.230189z m37.35346 59.250314h94.027672v-33.489308h-94.027672v33.489308z m92.739622 52.810063v-34.777358h-94.027673v34.777358h94.027673z m-92.739622 52.810063h94.027672v-34.777359h-94.027672V528.100629zM2849.167296 511.355975c2.576101 0 5.152201-1.28805 7.728301-2.576101 2.576101-1.28805 5.152201-9.016352 9.016353-21.896855 3.864151-12.880503 6.440252-23.184906 7.728302-32.201258 1.28805-9.016352 2.576101-15.456604 2.5761-19.320755l1.288051-10.304402h-28.337107v-18.032705h101.755974V425.056604h-34.777358c-1.28805 5.152201-2.576101 12.880503-6.440252 23.184905-2.576101 10.304403-7.728302 20.608805-12.880503 29.625158-6.440252 9.016352-12.880503 19.320755-20.608805 30.913207 15.456604 0 28.337107-1.28805 38.64151-3.864151-2.576101-6.440252-3.864151-11.592453-5.152202-15.456604-1.28805-3.864151-3.864151-7.728302-6.440251-12.880503l2.5761-2.5761c5.152201 2.576101 11.592453 5.152201 20.608805 10.304402 9.016352 3.864151 14.168553 9.016352 16.744655 15.456604 2.576101 6.440252 3.864151 11.592453 3.86415 16.744654s-1.28805 9.016352-5.152201 11.592453-7.728302 3.864151-11.592453 3.864151c-5.152201 0-7.728302-1.28805-9.016352-3.864151-1.28805-2.576101-2.576101-5.152201-2.5761-6.440252V515.220126c-10.304403 5.152201-19.320755 10.304403-27.049057 14.168553-7.728302 3.864151-18.032704 7.728302-30.913208 12.880503l-11.592452-30.913207z m11.592452-145.549686V347.773585h83.723271v18.032704h-83.723271z m45.081761 207.376101c14.168553-12.880503 25.761006-23.184906 32.201258-32.201258s11.592453-18.032704 14.168554-28.337107c2.576101-9.016352 3.864151-18.032704 5.152201-25.761006 1.28805-7.728302 1.28805-16.744654 2.576101-28.337107 0-11.592453 1.28805-20.608805 1.28805-29.625157V399.295597h-21.896855v-18.032704h21.896855v-45.081761h36.065409l-1.288051 45.081761h16.744655l9.016352-12.880503 38.641509 9.016352-9.016352 11.592453v158.430189c0 6.440252-2.576101 11.592453-5.152201 18.032704-3.864151 6.440252-15.456604 9.016352-36.065409 10.304403h-5.152201c-1.28805 0-1.28805-1.28805-2.576101-3.864151 0-2.576101-1.28805-5.152201-2.576101-7.728302-1.28805-2.576101-3.864151-5.152201-6.440251-7.728302-3.864151-2.576101-9.016352-3.864151-18.032705-6.440252v-3.864151c18.032704 1.28805 29.625157 2.576101 33.489309 1.288051 3.864151 0 6.440252-1.28805 7.728301-2.576101 1.28805-1.28805 1.28805-2.576101 1.288051-5.152201V400.583648h-18.032705v30.913207c0 5.152201 0 12.880503-1.28805 25.761007 0 12.880503-1.28805 24.472956-3.864151 36.065408-1.28805 11.592453-6.440252 21.896855-12.880503 32.201258-7.728302 10.304403-14.168553 16.744654-19.320755 21.896856-6.440252 5.152201-14.168553 10.304403-24.472956 16.744654-10.304403 6.440252-18.032704 11.592453-23.184905 14.168553l-9.016353-5.152201zM3248.462893 334.893082c-1.28805 5.152201-3.864151 9.016352-5.152201 14.168553-1.28805 3.864151-5.152201 10.304403-9.016352 16.744654-3.864151 7.728302-7.728302 12.880503-10.304403 15.456604l-6.440251 6.440252h12.880503v185.479245H3194.36478V412.176101c-7.728302 6.440252-14.168553 11.592453-20.608805 15.456603l-3.864151-1.28805c5.152201-7.728302 9.016352-14.168553 11.592453-19.320755 2.576101-6.440252 6.440252-14.168553 11.592453-27.049056 5.152201-11.592453 7.728302-23.184906 9.016352-32.201258l1.28805-10.304403h45.081761z m-9.016352 158.430188c11.592453-7.728302 23.184906-16.744654 36.065409-27.049056V334.893082h36.065408v94.027673c2.576101-3.864151 6.440252-9.016352 9.016353-12.880503 2.576101-5.152201 6.440252-11.592453 10.304402-20.608805 3.864151-9.016352 6.440252-16.744654 7.728302-21.896856l2.576101-11.592453h41.21761c-1.28805 5.152201-2.576101 9.016352-2.576101 11.592453-1.28805 2.576101-3.864151 11.592453-10.304402 25.761006s-14.168553 27.049057-25.761007 37.35346c-11.592453 11.592453-23.184906 20.608805-32.201258 28.337107v69.554717c0 3.864151 1.28805 5.152201 2.576101 7.728301 1.28805 1.28805 6.440252 2.576101 12.880503 2.576101 3.864151 0 7.728302 0 10.304403-1.28805 2.576101 0 5.152201-2.576101 9.016352-6.440252 3.864151-3.864151 7.728302-9.016352 11.592453-18.032704 3.864151-9.016352 7.728302-16.744654 11.592453-24.472956h3.864151c-1.28805 5.152201-2.576101 9.016352-3.864151 12.880503-1.28805 3.864151-1.28805 7.728302-2.576101 10.304402v6.440252c0 3.864151 1.28805 6.440252 2.576101 7.728302 1.28805 1.28805 3.864151 2.576101 6.440251 5.152201 2.576101 1.28805 3.864151 2.576101 5.152201 3.864151 1.28805 1.28805 0 3.864151-2.5761 7.728302-5.152201 7.728302-11.592453 14.168553-16.744654 16.744654-5.152201 2.576101-11.592453 5.152201-16.744654 5.152201-5.152201 1.28805-12.880503 1.28805-21.896856 1.288051-7.728302 0-15.456604 0-25.761006-1.288051-9.016352-1.28805-15.456604-3.864151-18.032704-10.304402-2.576101-5.152201-3.864151-11.592453-3.864151-18.032705v-60.538364c-9.016352 3.864151-20.608805 7.728302-33.489308 12.880503l-2.576101-1.288051zM3494.480503 444.377358c2.576101-3.864151 5.152201-6.440252 6.440252-9.016352 1.28805-2.576101 3.864151-6.440252 5.152201-11.592453 2.576101-5.152201 3.864151-10.304403 5.152201-15.456603 1.28805-5.152201 3.864151-11.592453 5.152201-19.320755 2.576101-7.728302 3.864151-12.880503 3.864151-16.744654l1.288051-6.440252h-24.472956v-16.744654h92.739622v16.744654h-30.913207c-3.864151 11.592453-6.440252 19.320755-9.016352 24.472956-2.576101 5.152201-5.152201 9.016352-7.728302 12.880503-2.576101 3.864151-6.440252 7.728302-10.304403 12.880504h14.168554v10.304402h14.168553l7.728302-9.016352 33.489308 6.440251-9.016352 10.304403v121.07673h-30.913208v-10.304403h-15.456603v10.304403h-32.201258v-122.36478c-3.864151 3.864151-10.304403 7.728302-16.744654 12.880503l-2.576101-1.288051z m51.522013 83.723271h15.456603v-85.011321h-15.456603V528.100629z m50.233962-77.283019v-18.032704h16.744654v-73.418868h-16.744654v-16.744654h113.348428v16.744654h-14.168554v73.418868h16.744654V450.81761h-16.744654v122.36478h-32.201258V450.81761H3645.18239v30.913208c0 7.728302 0 14.168553-1.28805 19.320754-1.28805 6.440252-2.576101 11.592453-3.864151 16.744654-2.576101 5.152201-5.152201 11.592453-9.016353 16.744655-3.864151 5.152201-7.728302 10.304403-12.880503 14.168553-5.152201 3.864151-9.016352 9.016352-15.456603 12.880503-5.152201 3.864151-11.592453 7.728302-19.320755 11.592453l-2.576101-2.576101 2.576101-2.5761 5.152201-5.152202c2.576101-2.576101 5.152201-6.440252 9.016352-11.592452 3.864151-5.152201 6.440252-12.880503 9.016353-20.608805 2.576101-7.728302 3.864151-16.744654 3.86415-27.049057 0-9.016352 1.28805-16.744654 1.288051-20.608805V450.81761h-15.456604z m47.657862-18.032704h18.032704v-73.418868h-18.032704v73.418868zM3824.221384 570.606289c18.032704-9.016352 29.625157-20.608805 38.641509-32.201258 7.728302-11.592453 14.168553-23.184906 16.744654-33.489308 2.576101-11.592453 3.864151-18.032704 3.864151-21.896855V476.578616h-50.233962v-18.032704h51.522012V450.81761v-15.456604h36.065409c0 3.864151-1.28805 10.304403-1.28805 18.032705v5.152201h30.913207l9.016353-12.880503 36.065408 9.016352-10.304402 11.592453v70.842767c0 2.576101 0 5.152201 1.28805 5.152201 1.28805 1.28805 2.576101 1.28805 3.864151 1.288051 2.576101 0 3.864151 0 6.440252-1.288051 1.28805-1.28805 2.576101-2.576101 3.864151-5.152201 1.28805-2.576101 2.576101-6.440252 5.152201-14.168553 2.576101-6.440252 3.864151-11.592453 5.152201-12.880503 1.28805-2.576101 2.576101-6.440252 3.864151-12.880504h2.576101c0 3.864151-1.28805 7.728302-1.28805 11.592453 0 5.152201 0 9.016352 1.28805 14.168554 1.28805 5.152201 2.576101 7.728302 5.152201 9.016352l7.728302 2.576101c1.28805 1.28805 2.576101 1.28805 2.576101 2.5761s0 2.576101-1.288051 6.440252c-2.576101 3.864151-5.152201 9.016352-7.728302 12.880503-2.576101 5.152201-7.728302 7.728302-14.168553 10.304402-6.440252 1.28805-14.168553 2.576101-20.608805 2.576101-20.608805 0-32.201258-2.576101-34.777359-9.016352-2.576101-6.440252-3.864151-12.880503-3.864151-18.032705v-68.266666h-33.489308c-1.28805 5.152201-1.28805 10.304403-2.5761 14.168553-1.28805 3.864151-2.576101 9.016352-3.864151 15.456604-1.28805 5.152201-5.152201 12.880503-9.016352 19.320755-3.864151 7.728302-10.304403 12.880503-16.744655 19.320754-6.440252 5.152201-15.456604 10.304403-25.761006 15.456604-10.304403 5.152201-23.184906 9.016352-36.065409 11.592453l1.288051 1.28805z m25.761006-220.256603c1.28805 1.28805 2.576101 2.576101 2.576101 3.86415l3.864151 5.152202 2.5761 5.152201h57.962264c-1.28805-1.28805-2.576101-1.28805-3.864151-2.576101-1.28805-1.28805-1.28805-2.576101-2.5761-3.864151 0-1.28805-1.28805-3.864151-2.576101-9.016352-1.28805-3.864151-2.576101-7.728302-3.864151-9.016352-1.28805-1.28805-3.864151-3.864151-6.440251-5.152201l1.28805-2.576101c12.880503 0 23.184906 1.28805 29.625157 1.28805 6.440252 0 11.592453 2.576101 15.456604 7.728302 3.864151 3.864151 5.152201 7.728302 5.152201 11.592453 0 3.864151-2.576101 6.440252-7.728302 10.304403h42.505661l14.168553-15.456604 39.92956 11.592453-12.880503 11.592453c-2.576101 3.864151-6.440252 9.016352-10.304403 12.880503l-12.880503 12.880503c-5.152201 3.864151-11.592453 7.728302-18.032704 11.592453 5.152201 3.864151 7.728302 6.440252 10.304402 10.304402 1.28805 2.576101 2.576101 6.440252 2.576101 9.016352 0 3.864151-1.28805 7.728302-5.152201 10.304403-2.576101 2.576101-6.440252 3.864151-10.304403 5.152201-3.864151 0-7.728302-1.28805-10.304403-3.864151-1.28805-1.28805-3.864151-3.864151-5.152201-6.440251-1.28805-2.576101-2.576101-6.440252-5.152201-10.304403-1.28805-3.864151-3.864151-9.016352-6.440252-12.880503-2.576101-5.152201-7.728302-9.016352-16.744654-12.880503l1.288051-2.576101c14.168553 2.576101 27.049057 6.440252 39.929559 12.880503 0-2.576101 1.28805-3.864151 1.288051-6.440251s1.28805-7.728302 2.5761-16.744654h-115.924528v9.016352c0 3.864151-1.28805 6.440252-2.576101 10.304402-2.576101 3.864151-5.152201 6.440252-9.016352 9.016353-3.864151 2.576101-7.728302 3.864151-11.592453 3.864151-3.864151 0-7.728302-1.28805-11.592452-3.864151-3.864151-2.576101-5.152201-6.440252-5.152202-10.304403 0-2.576101 1.28805-5.152201 3.864151-9.016352l9.016352-11.592453c2.576101-3.864151 5.152201-7.728302 6.440252-11.592453 1.28805-3.864151 2.576101-6.440252 2.576101-10.304402v-6.440252l1.28805-2.5761z m34.777358 39.929559l37.35346 5.152202c-7.728302 9.016352-15.456604 18.032704-21.896856 24.472956s-15.456604 11.592453-24.472956 15.456603c-10.304403 3.864151-20.608805 7.728302-32.201258 11.592453l-1.28805-2.576101c6.440252-5.152201 12.880503-10.304403 20.608805-18.032704 6.440252-7.728302 14.168553-20.608805 21.896855-36.065409zM4161.690566 337.469182h34.777359v14.168554c14.168553-6.440252 25.761006-12.880503 34.777358-18.032705l28.337107 20.608805c-10.304403 3.864151-20.608805 5.152201-28.337107 6.440252-9.016352 1.28805-19.320755 0-34.777358-1.28805v42.50566h15.456603l7.728302-10.304402 38.64151 7.728301-10.304403 10.304403v88.875472H4211.924528v-11.592453h-16.744654c0 5.152201-1.28805 10.304403-1.28805 15.456604 0 5.152201-1.28805 10.304403-3.864151 16.744654-1.28805 6.440252-5.152201 12.880503-10.304403 20.608805-5.152201 6.440252-9.016352 12.880503-14.168553 16.744654-3.864151 3.864151-9.016352 9.016352-15.456604 14.168553l-2.5761-1.28805c2.576101-5.152201 3.864151-9.016352 5.152201-12.880503 1.28805-3.864151 2.576101-9.016352 3.864151-14.168554 1.28805-5.152201 1.28805-10.304403 2.5761-15.456603 0-5.152201 1.28805-10.304403 1.288051-16.744654V337.469182z m50.233962 81.14717h-15.456603v50.233962h15.456603v-50.233962z m24.472956 148.125786c3.864151-6.440252 7.728302-12.880503 12.880503-20.608805 3.864151-7.728302 7.728302-18.032704 9.016353-32.201258 1.28805-14.168553 2.576101-25.761006 2.5761-34.777358 0-10.304403 1.28805-18.032704 1.288051-23.184906v-119.788679h34.777358v11.592453c7.728302-2.576101 14.168553-3.864151 19.320755-6.440252 5.152201-2.576101 10.304403-5.152201 16.744654-9.016352l30.913207 19.320755c-9.016352 3.864151-18.032704 5.152201-27.049056 6.440251-9.016352 1.28805-23.184906 1.28805-38.64151-1.28805v43.793711h66.978617v18.032704h-14.168554v155.854088h-34.777358V418.616352h-16.744654v39.92956c0 10.304403-1.28805 21.896855-2.576101 34.777358-1.28805 12.880503-5.152201 23.184906-10.304402 32.201258s-11.592453 16.744654-16.744655 20.608805l-11.592452 11.592453c-2.576101 2.576101-7.728302 6.440252-15.456604 10.304403l-6.440252-1.288051z" fill="#FFFFFF" p-id="8008"></path><path d="M918.379874 730.324528H901.63522v-81.14717h16.744654v81.14717zM933.836478 649.177358h18.032704l32.201258 56.674214v-56.674214h15.456604v81.14717h-16.744654l-33.489308-57.962264v57.962264h-15.456604v-81.14717zM1027.864151 704.563522c0 3.864151 1.28805 6.440252 2.576101 7.728302 2.576101 3.864151 7.728302 5.152201 14.168553 5.152201 3.864151 0 7.728302 0 10.304403-1.28805 5.152201-1.28805 7.728302-5.152201 7.728301-9.016352 0-2.576101-1.28805-5.152201-3.864151-6.440252-2.576101-1.28805-6.440252-2.576101-11.592452-3.864151l-9.016353-1.28805c-9.016352-1.28805-14.168553-3.864151-18.032704-6.440252-5.152201-3.864151-7.728302-9.016352-7.728302-18.032704 0-7.728302 2.576101-12.880503 7.728302-18.032705 5.152201-5.152201 12.880503-7.728302 23.184906-7.728301 9.016352 0 15.456604 2.576101 21.896855 6.440251 6.440252 5.152201 9.016352 11.592453 9.016352 19.320755h-16.744654c0-5.152201-2.576101-9.016352-6.440251-10.304403-2.576101-1.28805-6.440252-2.576101-10.304403-2.5761-3.864151 0-7.728302 1.28805-10.304402 2.5761-2.576101 1.28805-3.864151 3.864151-3.864151 7.728302 0 2.576101 1.28805 5.152201 3.864151 6.440252 1.28805 1.28805 5.152201 2.576101 10.304402 3.864151l14.168554 3.864151c6.440252 1.28805 10.304403 3.864151 14.168553 6.440251 5.152201 3.864151 7.728302 9.016352 7.728302 16.744654 0 7.728302-2.576101 14.168553-9.016352 18.032705-5.152201 5.152201-14.168553 7.728302-24.472956 7.728302-10.304403 0-19.320755-2.576101-24.472956-7.728302-6.440252-5.152201-9.016352-11.592453-9.016352-19.320755h18.032704zM1150.228931 649.177358v14.168554h-24.472956v66.978616h-16.744654v-66.978616h-24.472956v-14.168554h65.690566zM1174.701887 730.324528h-16.744654v-81.14717h16.744654v81.14717zM1249.408805 649.177358v14.168554h-24.472956v66.978616h-16.744654v-66.978616h-24.472956v-14.168554H1249.408805zM1259.713208 649.177358h16.744654v50.233963c0 5.152201 1.28805 9.016352 2.5761 11.592453 2.576101 5.152201 6.440252 6.440252 12.880503 6.440251s11.592453-2.576101 12.880504-6.440251c1.28805-2.576101 2.576101-6.440252 2.5761-11.592453v-50.233963h16.744654v50.233963c0 9.016352-1.28805 15.456604-3.864151 20.608805-5.152201 9.016352-14.168553 12.880503-28.337107 12.880503s-23.184906-3.864151-28.337107-12.880503c-2.576101-5.152201-3.864151-11.592453-3.86415-20.608805v-50.233963zM1400.110692 649.177358v14.168554h-24.472956v66.978616h-16.744654v-66.978616h-24.472956v-14.168554h65.690566zM1470.953459 663.345912h-42.50566v16.744654h39.929559V695.54717h-39.929559v20.608805h45.081761v14.168553h-61.826415v-81.14717h59.250314v14.168554zM1579.149686 722.596226c-6.440252 6.440252-15.456604 9.016352-27.049057 9.016353s-20.608805-2.576101-27.049057-9.016353c-7.728302-7.728302-12.880503-19.320755-12.880503-33.489308 0-15.456604 3.864151-25.761006 12.880503-33.489308 6.440252-6.440252 15.456604-9.016352 27.049057-9.016352s20.608805 2.576101 27.049057 9.016352c7.728302 7.728302 12.880503 18.032704 12.880503 33.489308 0 15.456604-3.864151 25.761006-12.880503 33.489308z m-10.304403-11.592452c3.864151-5.152201 6.440252-11.592453 6.440252-20.608805 0-9.016352-2.576101-15.456604-6.440252-20.608805-3.864151-5.152201-9.016352-7.728302-15.456604-7.728302s-11.592453 2.576101-16.744654 7.728302c-3.864151 5.152201-6.440252 11.592453-6.440251 20.608805 0 9.016352 2.576101 15.456604 6.440251 20.608805 3.864151 5.152201 9.016352 7.728302 16.744654 7.728301 6.440252-1.28805 11.592453-3.864151 15.456604-7.728301zM1604.910692 649.177358h57.962264v14.168554h-41.21761V682.666667h36.065409v12.880503h-36.065409v34.777358h-16.744654v-81.14717zM1724.699371 649.177358h19.320755l28.337107 81.14717h-18.032705l-5.152201-16.744654h-29.625157l-5.152201 16.744654h-18.032705l28.337107-81.14717z m-1.28805 50.233963h20.608805l-10.304403-32.201258-10.304402 32.201258zM1782.661635 649.177358h16.744654v50.233963c0 5.152201 1.28805 9.016352 2.576101 11.592453 2.576101 5.152201 6.440252 6.440252 12.880503 6.440251s11.592453-2.576101 12.880503-6.440251c1.28805-2.576101 2.576101-6.440252 2.576101-11.592453v-50.233963h16.744654v50.233963c0 9.016352-1.28805 15.456604-3.864151 20.608805-5.152201 9.016352-14.168553 12.880503-28.337107 12.880503s-23.184906-3.864151-28.337107-12.880503c-2.576101-5.152201-3.864151-11.592453-3.864151-20.608805v-50.233963zM1923.059119 649.177358v14.168554h-24.472955v66.978616h-16.744655v-66.978616h-24.472956v-14.168554h65.690566zM1993.901887 722.596226c-6.440252 6.440252-15.456604 9.016352-27.049057 9.016353-11.592453 0-20.608805-2.576101-27.049056-9.016353-7.728302-7.728302-12.880503-19.320755-12.880504-33.489308 0-15.456604 3.864151-25.761006 12.880504-33.489308 6.440252-6.440252 15.456604-9.016352 27.049056-9.016352 11.592453 0 20.608805 2.576101 27.049057 9.016352 7.728302 7.728302 12.880503 18.032704 12.880503 33.489308-1.28805 15.456604-5.152201 25.761006-12.880503 33.489308z m-10.304403-11.592452c3.864151-5.152201 6.440252-11.592453 6.440252-20.608805 0-9.016352-2.576101-15.456604-6.440252-20.608805-3.864151-5.152201-9.016352-7.728302-15.456603-7.728302s-11.592453 2.576101-16.744655 7.728302c-3.864151 5.152201-6.440252 11.592453-6.440251 20.608805 0 9.016352 2.576101 15.456604 6.440251 20.608805 3.864151 5.152201 9.016352 7.728302 16.744655 7.728301 5.152201-1.28805 11.592453-3.864151 15.456603-7.728301zM2072.472956 649.177358h24.472956v81.14717h-15.456604v-55.386163-6.440252-6.440251l-15.456604 68.266666h-16.744654l-15.456603-68.266666v68.266666h-15.456604v-81.14717h24.472956l15.456604 64.402516 14.168553-64.402516zM2135.587421 649.177358h19.320755l28.337107 81.14717h-18.032704l-5.152202-16.744654h-29.625157l-5.152201 16.744654h-18.032705l28.337107-81.14717z m0 50.233963h20.608805l-10.304402-32.201258-10.304403 32.201258zM2245.071698 649.177358v14.168554h-24.472956v66.978616h-16.744654v-66.978616h-24.472956v-14.168554h65.690566zM2270.832704 730.324528H2254.08805v-81.14717h16.744654v81.14717zM2349.403774 722.596226c-6.440252 6.440252-15.456604 9.016352-27.049057 9.016353-11.592453 0-20.608805-2.576101-27.049057-9.016353-7.728302-7.728302-12.880503-19.320755-12.880503-33.489308 0-15.456604 3.864151-25.761006 12.880503-33.489308 6.440252-6.440252 15.456604-9.016352 27.049057-9.016352 11.592453 0 20.608805 2.576101 27.049057 9.016352 7.728302 7.728302 12.880503 18.032704 12.880503 33.489308-1.28805 15.456604-5.152201 25.761006-12.880503 33.489308z m-10.304403-11.592452c3.864151-5.152201 6.440252-11.592453 6.440252-20.608805 0-9.016352-2.576101-15.456604-6.440252-20.608805-3.864151-5.152201-9.016352-7.728302-15.456604-7.728302s-11.592453 2.576101-16.744654 7.728302c-3.864151 5.152201-6.440252 11.592453-6.440251 20.608805 0 9.016352 2.576101 15.456604 6.440251 20.608805 3.864151 5.152201 9.016352 7.728302 16.744654 7.728301 5.152201-1.28805 11.592453-3.864151 15.456604-7.728301zM2373.87673 649.177358h18.032704l32.201258 56.674214v-56.674214h15.456604v81.14717h-16.744654l-33.489309-57.962264v57.962264h-15.456603v-81.14717zM2494.953459 658.193711c6.440252-6.440252 15.456604-10.304403 24.472956-10.304403 12.880503 0 23.184906 3.864151 29.625157 12.880503 3.864151 5.152201 5.152201 10.304403 5.152202 15.456604H2537.459119c-1.28805-3.864151-2.576101-6.440252-3.86415-9.016352-2.576101-3.864151-7.728302-5.152201-12.880504-5.152201-6.440252 0-10.304403 2.576101-14.168553 7.728302-3.864151 5.152201-5.152201 11.592453-5.152201 20.608805 0 9.016352 1.28805 15.456604 5.152201 20.608805 3.864151 5.152201 7.728302 6.440252 14.168553 6.440251 5.152201 0 10.304403-2.576101 12.880504-6.440251 1.28805-2.576101 2.576101-5.152201 3.86415-9.016353h16.744655c-1.28805 9.016352-5.152201 15.456604-11.592453 21.896856-6.440252 5.152201-14.168553 7.728302-23.184906 7.728302-11.592453 0-20.608805-3.864151-27.049057-11.592453-6.440252-7.728302-10.304403-18.032704-10.304402-30.913208 1.28805-12.880503 5.152201-24.472956 12.880503-30.913207zM2568.372327 730.324528v-81.14717h16.744654v30.913208h32.201258v-30.913208h16.744654v81.14717h-16.744654v-36.065409h-32.201258v36.065409h-16.744654zM2666.264151 730.324528h-16.744654v-81.14717h16.744654v81.14717zM2681.720755 649.177358h18.032704l32.201258 56.674214v-56.674214h15.456604v81.14717H2730.666667l-33.489309-57.962264v57.962264h-15.456603v-81.14717zM2823.406289 663.345912h-42.50566v16.744654h39.92956V695.54717h-39.92956v20.608805h45.081761v14.168553h-61.826415v-81.14717h59.250314v14.168554zM2850.455346 704.563522c0 3.864151 1.28805 6.440252 2.576101 7.728302 2.576101 3.864151 7.728302 5.152201 14.168553 5.152201 3.864151 0 7.728302 0 10.304403-1.28805 5.152201-1.28805 7.728302-5.152201 7.728301-9.016352 0-2.576101-1.28805-5.152201-3.864151-6.440252-2.576101-1.28805-6.440252-2.576101-11.592452-3.864151l-9.016353-2.576101c-9.016352-1.28805-14.168553-3.864151-18.032704-6.440251-5.152201-3.864151-7.728302-9.016352-7.728302-18.032704 0-7.728302 2.576101-12.880503 7.728302-18.032705 5.152201-5.152201 12.880503-7.728302 23.184906-7.728302 9.016352 0 15.456604 2.576101 21.896855 6.440252 6.440252 5.152201 9.016352 11.592453 9.016352 19.320755h-16.744654c0-5.152201-2.576101-9.016352-6.440251-10.304403-2.576101-1.28805-6.440252-2.576101-10.304403-2.576101-3.864151 0-7.728302 1.28805-10.304402 2.576101-2.576101 1.28805-3.864151 3.864151-3.864151 7.728302 0 2.576101 1.28805 5.152201 3.864151 6.440251 1.28805 1.28805 5.152201 2.576101 10.304402 3.864151l14.168554 3.864151c6.440252 1.28805 10.304403 3.864151 14.168553 6.440252 5.152201 3.864151 7.728302 9.016352 7.728302 16.744654 0 7.728302-2.576101 14.168553-9.016352 18.032704-5.152201 5.152201-14.168553 7.728302-24.472956 7.728302-10.304403 0-19.320755-2.576101-25.761007-7.728302-6.440252-5.152201-9.016352-11.592453-9.016352-19.320754h19.320755zM2974.108176 663.345912h-42.50566v16.744654h39.929559V695.54717h-39.929559v20.608805h45.081761v14.168553h-61.826415v-81.14717h59.250314v14.168554zM3039.798742 649.177358h19.320755l28.337107 81.14717h-18.032705l-5.152201-16.744654h-29.625157l-5.152201 16.744654h-18.032705l28.337107-81.14717z m-1.28805 50.233963h20.608805l-10.304403-32.201258-10.304402 32.201258zM3105.489308 658.193711c6.440252-6.440252 15.456604-10.304403 24.472956-10.304403 12.880503 0 23.184906 3.864151 29.625157 12.880503 3.864151 5.152201 5.152201 10.304403 5.152202 15.456604h-16.744654c-1.28805-3.864151-2.576101-6.440252-3.864151-9.016352-2.576101-3.864151-7.728302-5.152201-12.880504-5.152201-6.440252 0-10.304403 2.576101-14.168553 7.728302-3.864151 5.152201-5.152201 11.592453-5.152201 20.608805 0 9.016352 1.28805 15.456604 5.152201 20.608805 3.864151 5.152201 7.728302 6.440252 14.168553 6.440251 5.152201 0 10.304403-2.576101 12.880504-6.440251 1.28805-2.576101 2.576101-5.152201 3.864151-9.016353h16.744654c-1.28805 9.016352-5.152201 15.456604-11.592453 21.896856-6.440252 5.152201-14.168553 7.728302-23.184906 7.728302-11.592453 0-20.608805-3.864151-27.049056-11.592453-6.440252-7.728302-10.304403-18.032704-10.304403-30.913208 1.28805-12.880503 5.152201-24.472956 12.880503-30.913207zM3202.093082 649.177358h19.320754l28.337107 81.14717h-18.032704l-5.152201-16.744654h-29.625157l-5.152202 16.744654h-18.032704l28.337107-81.14717z m-1.288051 50.233963h20.608805l-10.304402-32.201258-10.304403 32.201258zM3309.001258 650.465409c5.152201 1.28805 10.304403 5.152201 14.168553 10.304402 2.576101 3.864151 5.152201 9.016352 6.440252 12.880503 1.28805 5.152201 1.28805 9.016352 1.28805 12.880504 0 10.304403-2.576101 20.608805-6.440251 27.049056-6.440252 10.304403-15.456604 15.456604-27.049057 15.456604h-34.777358v-81.14717h34.777358c3.864151 1.28805 7.728302 1.28805 11.592453 2.576101z m-32.201258 12.880503v52.810063h15.456604c7.728302 0 14.168553-3.864151 16.744654-11.592453 1.28805-3.864151 2.576101-9.016352 2.5761-15.456604 0-7.728302-1.28805-14.168553-3.86415-19.320754-2.576101-3.864151-7.728302-6.440252-15.456604-6.440252h-15.456604zM3403.028931 663.345912h-42.505661v16.744654h39.92956V695.54717h-39.92956v20.608805h45.081761v14.168553h-61.826415v-81.14717h59.250315v14.168554zM3472.583648 649.177358h24.472956v81.14717h-15.456604v-55.386163-6.440252-6.440251l-15.456604 68.266666h-16.744654l-15.456604-68.266666v68.266666h-15.456603v-81.14717h24.472956l15.456603 64.402516 14.168554-64.402516zM3557.594969 649.177358h19.320754l-27.049056 51.522013v30.913208h-16.744654v-30.913208l-28.337107-50.233962h20.608805l16.744654 36.065409 15.456604-37.35346zM3678.671698 722.596226c-6.440252 6.440252-15.456604 9.016352-27.049056 9.016353-11.592453 0-20.608805-2.576101-27.049057-9.016353-7.728302-7.728302-12.880503-19.320755-12.880503-33.489308 0-15.456604 3.864151-25.761006 12.880503-33.489308 6.440252-6.440252 15.456604-9.016352 27.049057-9.016352 11.592453 0 20.608805 2.576101 27.049056 9.016352 7.728302 7.728302 12.880503 18.032704 12.880503 33.489308 0 15.456604-3.864151 25.761006-12.880503 33.489308z m-10.304402-11.592452c3.864151-5.152201 6.440252-11.592453 6.440251-20.608805 0-9.016352-2.576101-15.456604-6.440251-20.608805-3.864151-5.152201-9.016352-7.728302-15.456604-7.728302s-11.592453 2.576101-16.744654 7.728302c-3.864151 5.152201-6.440252 11.592453-6.440252 20.608805 0 9.016352 2.576101 15.456604 6.440252 20.608805 3.864151 5.152201 9.016352 7.728302 16.744654 7.728301 6.440252-1.28805 11.592453-3.864151 15.456604-7.728301zM3704.432704 649.177358h57.962265v14.168554h-41.217611V682.666667h36.065409v12.880503h-36.065409v34.777358h-16.744654v-81.14717zM3816.493082 704.563522c0 3.864151 1.28805 6.440252 2.5761 7.728302 2.576101 3.864151 7.728302 5.152201 14.168554 5.152201 3.864151 0 7.728302 0 10.304402-1.28805 5.152201-1.28805 7.728302-5.152201 7.728302-9.016352 0-2.576101-1.28805-5.152201-3.864151-6.440252-2.576101-1.28805-6.440252-2.576101-11.592453-3.864151l-9.016352-2.576101c-9.016352-1.28805-14.168553-3.864151-18.032704-6.440251-5.152201-3.864151-7.728302-9.016352-7.728302-18.032704 0-7.728302 2.576101-12.880503 7.728302-18.032705 5.152201-5.152201 12.880503-7.728302 23.184906-7.728302 9.016352 0 15.456604 2.576101 21.896855 6.440252s9.016352 11.592453 9.016352 19.320755h-16.744654c0-5.152201-2.576101-9.016352-6.440252-10.304403-2.576101-1.28805-6.440252-2.576101-10.304402-2.576101-3.864151 0-7.728302 1.28805-10.304403 2.576101-2.576101 1.28805-3.864151 3.864151-3.864151 7.728302 0 2.576101 1.28805 5.152201 3.864151 6.440251 1.28805 1.28805 5.152201 2.576101 10.304403 3.864151l14.168553 3.864151c6.440252 1.28805 10.304403 3.864151 14.168554 6.440252 5.152201 3.864151 7.728302 9.016352 7.728302 16.744654 0 7.728302-2.576101 14.168553-9.016352 18.032704-5.152201 5.152201-14.168553 7.728302-24.472956 7.728302-10.304403 0-19.320755-2.576101-24.472956-7.728302-6.440252-5.152201-9.016352-11.592453-9.016353-19.320754h18.032705zM3887.335849 658.193711c6.440252-6.440252 15.456604-10.304403 24.472956-10.304403 12.880503 0 23.184906 3.864151 29.625157 12.880503 3.864151 5.152201 5.152201 10.304403 5.152202 15.456604h-16.744655c-1.28805-3.864151-2.576101-6.440252-3.864151-9.016352-2.576101-3.864151-7.728302-5.152201-12.880503-5.152201-6.440252 0-10.304403 2.576101-14.168553 7.728302-3.864151 5.152201-5.152201 11.592453-5.152201 20.608805 0 9.016352 1.28805 15.456604 5.152201 20.608805 3.864151 5.152201 7.728302 6.440252 14.168553 6.440251 5.152201 0 10.304403-2.576101 12.880503-6.440251 1.28805-2.576101 2.576101-5.152201 3.864151-9.016353h16.744655c-1.28805 9.016352-5.152201 15.456604-11.592453 21.896856-6.440252 5.152201-14.168553 7.728302-23.184906 7.728302-11.592453 0-20.608805-3.864151-27.049057-11.592453-6.440252-7.728302-10.304403-18.032704-10.304402-30.913208 1.28805-12.880503 5.152201-24.472956 12.880503-30.913207zM3976.211321 730.324528h-16.744654v-81.14717h16.744654v81.14717zM4052.206289 663.345912h-42.50566v16.744654h39.92956V695.54717h-39.92956v20.608805h45.081761v14.168553H3992.955975v-81.14717h59.250314v14.168554zM4067.662893 649.177358h18.032704l32.201258 56.674214v-56.674214h15.456604v81.14717h-16.744654l-33.489308-57.962264v57.962264h-15.456604v-81.14717zM4157.826415 658.193711c6.440252-6.440252 15.456604-10.304403 24.472956-10.304403 12.880503 0 23.184906 3.864151 29.625157 12.880503 3.864151 5.152201 5.152201 10.304403 5.152202 15.456604h-16.744655c-1.28805-3.864151-2.576101-6.440252-3.86415-9.016352-2.576101-3.864151-7.728302-5.152201-12.880504-5.152201-6.440252 0-10.304403 2.576101-14.168553 7.728302-3.864151 5.152201-5.152201 11.592453-5.152201 20.608805 0 9.016352 1.28805 15.456604 5.152201 20.608805 3.864151 5.152201 7.728302 6.440252 14.168553 6.440251 5.152201 0 10.304403-2.576101 12.880504-6.440251 1.28805-2.576101 2.576101-5.152201 3.86415-9.016353h16.744655c-1.28805 9.016352-5.152201 15.456604-11.592453 21.896856-6.440252 5.152201-14.168553 7.728302-23.184906 7.728302-11.592453 0-20.608805-3.864151-27.049057-11.592453-6.440252-7.728302-10.304403-18.032704-10.304402-30.913208 1.28805-12.880503 5.152201-24.472956 12.880503-30.913207zM4291.783648 663.345912h-42.505661v16.744654h39.92956V695.54717h-39.92956v20.608805h45.081761v14.168553h-61.826415v-81.14717h59.250315v14.168554zM4318.832704 704.563522c0 3.864151 1.28805 6.440252 2.576101 7.728302 2.576101 3.864151 7.728302 5.152201 14.168553 5.152201 3.864151 0 7.728302 0 10.304403-1.28805 5.152201-1.28805 7.728302-5.152201 7.728302-9.016352 0-2.576101-1.28805-5.152201-3.864151-6.440252-2.576101-1.28805-6.440252-2.576101-11.592453-3.864151l-9.016352-2.576101c-9.016352-1.28805-14.168553-3.864151-18.032704-6.440251-5.152201-3.864151-7.728302-9.016352-7.728302-18.032704 0-7.728302 2.576101-12.880503 7.728302-18.032705 5.152201-5.152201 12.880503-7.728302 23.184905-7.728302 9.016352 0 15.456604 2.576101 21.896856 6.440252 6.440252 5.152201 9.016352 11.592453 9.016352 19.320755h-16.744654c0-5.152201-2.576101-9.016352-6.440252-10.304403-2.576101-1.28805-6.440252-2.576101-10.304402-2.576101-3.864151 0-7.728302 1.28805-10.304403 2.576101-2.576101 1.28805-3.864151 3.864151-3.864151 7.728302 0 2.576101 1.28805 5.152201 3.864151 6.440251 1.28805 1.28805 5.152201 2.576101 10.304403 3.864151l14.168553 3.864151c6.440252 1.28805 10.304403 3.864151 14.168553 6.440252 5.152201 3.864151 7.728302 9.016352 7.728302 16.744654 0 7.728302-2.576101 14.168553-9.016352 18.032704-5.152201 5.152201-14.168553 7.728302-24.472956 7.728302-10.304403 0-19.320755-2.576101-24.472956-7.728302-6.440252-5.152201-9.016352-11.592453-9.016352-19.320754h18.032704z" fill="#FFFFFF" p-id="8009"></path></svg>