<?xml version="1.0" standalone="no"?><!DOCTYPE svg PUBLIC "-//W3C//DTD SVG 1.1//EN" "http://www.w3.org/Graphics/SVG/1.1/DTD/svg11.dtd"><svg t="1720526639715" class="icon" viewBox="0 0 1024 1024" version="1.1" xmlns="http://www.w3.org/2000/svg" p-id="5997" xmlns:xlink="http://www.w3.org/1999/xlink" width="200" height="200"><path d="M88.9088 499.96288c0-63.5648 0.42496-127.13984-0.16384-190.69952-0.33792-36.7872 16.5888-62.10048 47.64672-79.9232 52.06016-29.86496 103.79264-60.3136 155.79648-90.30144 41.3696-23.85408 82.84672-47.53408 124.44672-70.98368 19.80928-11.1616 38.4512-24.38656 59.56608-33.2544 29.46048-12.36992 57.10848-6.76864 83.56864 8.41216 30.80192 17.66912 61.23008 35.97312 91.88864 53.888a24389.10976 24389.10976 0 0 0 95.5648 55.53152c30.08 17.39776 60.25728 34.63168 90.32704 52.02944 21.2992 12.31872 43.904 22.53824 63.09376 38.24128 15.18592 12.42624 23.41888 29.05088 27.2384 48.08192 3.52256 17.57184 2.1248 35.328 2.14016 53.01248 0.10752 114.48832 0.04608 228.98688 0.08192 343.4752 0.01024 38.08768-16.50688 65.7664-49.93536 84.69504-56.09984 31.7696-111.43168 64.896-167.25504 97.152-46.68416 26.97216-93.59872 53.54496-140.4416 80.23552-13.12768 7.48032-25.33888 16.80896-40.32512 20.64384-27.97568 7.14752-53.16096-0.27136-77.27104-14.37184-36.9152-21.58592-74.01472-42.84416-111.03232-64.24064-38.8096-22.43072-77.63968-44.83584-116.4288-67.28704-31.93344-18.46784-63.89248-36.91008-95.73376-55.54176-27.66336-16.19456-42.67008-40.12032-42.74176-72.54016-0.12288-65.408-0.03072-130.83136-0.03072-196.25472z m783.13472 0.68096c0-61.71648 0.03584-123.43296-0.0256-185.14944-0.01536-15.29856-5.43744-26.79808-19.85536-34.84672-49.68448-27.71456-98.93376-56.20224-148.16768-84.70528-59.91424-34.68288-119.6544-69.67296-179.46624-104.5504-10.73664-6.26176-20.90496-5.97504-31.84128 0.50176-35.20512 20.8384-70.69696 41.21088-106.17856 61.58336-35.7632 20.5312-71.71072 40.74496-107.46368 61.30176-37.34016 21.46304-74.34752 43.50976-111.8976 64.59392-13.84448 7.76704-20.56704 17.57696-20.5056 34.02752 0.44544 125.66016 0.42496 251.33056 0.0512 376.9856-0.03584 12.5952 4.9664 21.13536 14.69952 27.24352 11.31008 7.11168 23.30624 13.1072 34.88768 19.78368 36.72576 21.18144 73.3696 42.49088 110.09024 63.67232 30.10048 17.37216 60.288 34.57024 90.38848 51.93216 32.90112 18.99008 65.88416 37.84192 98.54464 57.2416 10.1376 6.02112 19.46112 4.97152 28.78464-0.36864a35503.4624 35503.4624 0 0 0 143.98464-82.85696c57.32352-33.17248 114.02752-67.44064 172.06784-99.31264 22.85568-12.53888 33.23392-27.46368 32.4352-54.21056-1.71008-57.57952-0.52736-115.23584-0.53248-172.86656z" fill="#4D4D4D" p-id="5998"></path><path d="M379.46368 719.104l-0.5376-0.32256s-0.62976 0.06656-0.62976 0.0768c-1.96096-1.65888-3.71712-3.6864-5.90848-4.95104-30.9248-17.8688-61.85984-35.73248-92.9024-53.39648-12.85632-7.31136-23.3984-15.21152-23.28576-32.49664 0.45568-71.31648 0.17408-142.6432 0.27136-213.96992 0.02048-16.47104 10.97216-22.62528 25.3696-14.46912 10.9056 6.17984 21.74976 12.47232 32.60416 18.75456C365.9264 448.13824 417.35168 478.0544 468.93056 507.68896c8.38144 4.8128 13.74208 10.22976 12.98944 20.90496-0.83968 11.83232-0.1792 23.76704-0.1792 35.65056-0.00512 61.29152-0.47104 122.59328 0.34304 183.86944 0.16896 12.65152-10.0864 20.46976-23.34208 15.41632-3.08224-1.1776-5.88288-3.09248-8.79104-4.71552-12.8256-7.17312-25.64608-14.3616-38.4768-21.54496 0 0-0.5888-0.11776-0.59392-0.10752-0.96256-0.40448-1.91488-0.81408-2.87232-1.22368l0.01536 0.01536c-8.52992-7.296-18.24768-12.57472-28.55936-16.84992z" fill="#E2662C" p-id="5999"></path><path d="M758.56384 642.47296c-5.5808 14.03904-19.70176 17.84832-30.97088 24.11008-26.8544 14.90944-54.17984 29.35296-80.4352 44.97408a8689.50528 8689.50528 0 0 1-85.85216 50.57024c-15.30368 8.87296-26.42944 1.09056-26.37312-14.1056 0.22528-73.5744 0.32256-147.15904-0.1024-220.73344-0.08704-13.36832 9.35424-18.57024 18.18112-21.68832 14.95552-5.28384 26.11712-16.13824 39.78752-23.21408 25.98912-13.44512 50.01728-30.76608 76.22144-43.71456 23.21408-11.45856 43.53536-27.45344 66.688-38.78912 8.8832-4.34688 16.51712-6.37952 22.81472 3.46112 0.02048 79.70816 0.03072 159.41632 0.04096 239.1296z" fill="#1A5091" p-id="6000"></path><path d="M411.47904 737.26464c12.8256 7.18336 25.64608 14.37184 38.4768 21.54496 2.90816 1.61792 5.71392 3.5328 8.79104 4.71552 13.25056 5.05344 23.50592-2.7648 23.34208-15.41632-0.81408-61.27616-0.35328-122.57792-0.34304-183.86944 0-11.88352-0.65536-23.81824 0.1792-35.65056 0.75264-10.6752-4.60288-16.08704-12.98944-20.90496-51.584-29.62944-103.00928-59.5456-154.49088-89.34912-10.8544-6.28224-21.69344-12.57472-32.60416-18.75456-14.40256-8.16128-25.34912-2.00192-25.3696 14.46912-0.09728 71.3216 0.18432 142.65344-0.27136 213.96992-0.11264 17.28512 10.43456 25.18528 23.28576 32.49664a15614.19264 15614.19264 0 0 1 92.9024 53.39648c2.19136 1.26464 3.94752 3.29216 5.90848 4.95104-4.6336 2.9184-8.97024 0.82944-12.416-1.792-16.50688-12.52352-34.98496-21.61664-52.84864-31.85664-16.71168-9.58976-35.40992-16.13312-49.69472-29.62944-5.4528-5.15584-14.1312-9.31328-9.52832-19.8144 0.95744-2.18624 0.17408-5.13536 0.17408-7.74144-0.00512-72.8064 0.01536-145.6128-0.09728-218.4192-0.01024-6.528-0.4096-14.01856 6.68672-16.03584 7.9104-2.2528 17.37728-4.00896 24.56064 1.4848 15.77472 12.06272 33.33632 21.36576 50.36032 31.0528 20.93568 11.904 41.64608 24.27904 62.70464 35.81952 25.23648 13.824 49.05984 30.22848 75.4688 42.06592 7.95648 3.57376 12.75392 10.65472 12.68224 21.36064-0.512 75.02848-0.27136 150.07232-0.29184 225.10592-0.00512 14.5664-2.34496 14.7968-16.6912 17.32608-15.17568 2.66752-23.60832-7.1936-34.3808-13.23008l-0.01024 0.32256 0.27136 0.14848c-6.03648-1.41312-10.80832-5.65248-17.19296-6.91712-3.7376-0.73216-8.98048-4.45952-6.57408-10.84928zM300.75904 325.38112c12.9024-11.50464 25.79968-22.4256 43.25888-27.47392 6.31296-1.82272 14.67904-5.17632 17.89952-13.40416 0.55296-1.42336 2.67264-3.07712 4.15744-3.16416 11.20256-0.62976 17.71008-9.94816 26.89536-14.35136 8.73472-4.18816 17.60256-8.28416 26.1376-13.07136 13.3888-7.51616 25.96352-16.42496 39.76704-23.33696 11.5968-5.80608 22.41536-13.53216 33.79712-19.65568 8.79104-4.736 21.05344-3.59424 30.34624-0.45568 9.58976 3.23584 19.61984 8.77056 27.58144 14.26944 9.2928 6.4256 18.7136 13.3888 28.8768 17.21856 14.00832 5.27872 24.1152 15.34464 35.9936 23.17312 0.6144 0.40448 1.31584 1.46944 1.67936 1.34656 17.1008-5.8112 21.79072 12.91264 34.06848 17.42848 17.1776 6.31808 32.26624 17.46432 47.25248 28.20608 1.75104 1.2544 4.00896 1.90464 6.12352 2.5088 12.01152 3.41504 21.49376 9.28256 22.31296 23.27552 0.52224 8.86272-10.81344 21.53472-22.0928 26.62912-23.58784 10.65984-45.18912 24.91904-67.58912 37.74464-14.57152 8.33536-27.59168 21.16096-45.99808 21.76a108.2368 108.2368 0 0 0-0.7168-0.88064c3.72224-2.37568 7.3472-4.91008 11.17184-7.10656 35.87584-20.59776 71.8336-41.05216 107.648-61.75744 14.08512-8.15104 14.5408-20.992 0.72704-29.27104-25.00608-14.98112-50.33984-29.40416-75.59168-43.96544-36.7104-21.18144-73.40032-42.40896-110.24896-63.34464-10.73664-6.09792-21.93408-5.71904-32.72704 0.48128-20.48512 11.76576-40.92928 23.6032-61.39904 35.38944l-127.65696 73.472a511.45216 511.45216 0 0 1-1.67424-1.664z" fill="#EBFAD2" p-id="6001"></path><path d="M591.22176 424.01792c-2.55488 3.712-4.89984 6.77888-9.19552 9.68192-18.2784 12.34432-38.20544 21.75488-57.19552 32.68096-9.78944 5.632-23.64928 4.6336-34.80576-1.17248-12.2112-6.35904-23.07072-16.00512-35.83488-20.44928-15.00672-5.22752-26.09664-15.37024-38.87104-23.46496-11.9808-7.58784-24.36096-15.13984-36.74624-21.38624-25.4208-12.83072-49.50528-27.78624-74.31168-41.55392-9.59488-5.3248-14.35648-21.20192-9.3952-30.71488 1.22368-2.33984 3.72736-2.03264 5.89824-2.26304l1.66912 1.664c-7.17312 15.52384-5.74976 20.67456 8.38656 28.91776 7.30112 4.25472 14.84288 8.09472 22.16448 12.31872 30.6944 17.73056 61.29152 35.62496 92.01664 53.29408 23.3216 13.40416 46.72512 26.66496 70.20032 39.79264 10.14272 5.66784 20.52608 4.7872 30.37184-0.79872 21.72416-12.33408 43.29472-24.94464 64.93184-37.43744l0.7168 0.89088z" fill="#EBFAD2" p-id="6002"></path><path d="M758.56384 642.47296l-0.03584-239.1296c3.42528 1.98656 1.96608 5.31968 1.96608 8.03328 0.08704 74.3424 0.0768 148.68992-0.02048 223.03232 0 2.72896 1.46432 6.04672-1.90976 8.064z" fill="#4D4D4D" p-id="6003"></path><path d="M379.46368 719.104c10.31168 4.2752 20.02944 9.55392 28.5696 16.83968-13.97248 1.93536-20.85888-8.14592-28.5696-16.83968z" fill="#EBFAD2" p-id="6004"></path><path d="M435.24096 755.02592l-0.27136-0.14848 0.01024-0.32768z" fill="#E2662C" p-id="6005"></path><path d="M408.0128 735.92832c0.95744 0.4096 1.90976 0.8192 2.87232 1.22368-1.40288 0.65024-2.2784 0.04608-2.87232-1.22368z" fill="#EBFAD2" p-id="6006"></path><path d="M590.50496 423.13728c-21.63712 12.4928-43.20256 25.10336-64.93184 37.43744-9.84576 5.58592-20.22912 6.46656-30.37184 0.79872a6918.13376 6918.13376 0 0 1-70.20032-39.79264c-30.72512-17.67424-61.32224-35.56352-92.01664-53.29408-7.3216-4.224-14.86336-8.064-22.16448-12.31872-14.13632-8.24832-15.5648-13.39392-8.38656-28.91776 42.55232-24.48896 85.10464-48.97792 127.65184-73.48224 20.46976-11.78624 40.91392-23.62368 61.39904-35.38944 10.79296-6.20032 21.9904-6.58432 32.72704-0.48128 36.84864 20.93568 73.53856 42.15808 110.24896 63.34464 25.25184 14.5664 50.5856 28.98432 75.59168 43.96544 13.81376 8.27904 13.35808 21.12-0.72704 29.27104-35.8144 20.70528-71.77728 41.15456-107.648 61.75744-3.82464 2.19136-7.4496 4.72576-11.17184 7.10144z" fill="#82BA43" p-id="6007"></path></svg>